<svg height="64" width="64" xmlns="http://www.w3.org/2000/svg" viewBox="0 0 512 512"
  xml:space="preserve">
  <g stroke-width="0"/>
  <g stroke-linecap="round" stroke-linejoin="round"/>
  <path style="fill:#efb832" d="M256 512C114.841 512 0 397.159 0 256S114.841 0 256 0s256 114.841 256 256-114.841 256-256 256"/>
  <g style="opacity:.2">
    <path style="fill:#fff" d="M331.858 278.511c-2.639-7.713-6.907-14.208-12.786-19.487-4.679-4.679-10.266-8.329-16.762-10.969s-14.723-4.679-24.68-6.102l-1.92-.291-23.978-3.668c-4.662-.6-8.57-1.628-11.723-3.051a33 33 0 0 1-3.719-1.936 28 28 0 0 1-4.353-3.24c-2.245-2.228-3.805-4.662-4.73-7.301a25.1 25.1 0 0 1-1.371-8.227c0-7.524 2.691-13.968 8.073-19.35a19.4 19.4 0 0 1 2.382-2.04c5.348-4.028 12.94-6.033 22.761-6.033 5.33 0 10.883.48 16.659 1.457 1.936.326 3.891.703 5.879 1.131 7.918 1.731 15.237 5.844 21.938 12.34l26.806-26.514c-9.341-9.135-19.59-15.631-30.765-19.487-7.164-2.468-15.133-4.165-23.875-5.039-4.884-.514-10.026-.754-15.425-.754-8.638 0-16.642.874-23.978 2.639a77 77 0 0 0-7.713 2.245c-9.341 3.24-17.259 7.764-23.755 13.54-6.496 5.793-11.484 12.7-14.928 20.721-3.462 8.021-5.176 16.917-5.176 26.669 0 18.476 5.176 32.702 15.528 42.642 4.885 4.679 10.66 8.484 17.362 11.432 5.296 2.314 11.5 4.165 18.681 5.519 1.937.377 3.925.72 5.999 1.028l25.897 3.959c2.913.428 5.416.891 7.524 1.371 1.868.446 3.428.891 4.662 1.371 2.639 1.011 5.073 2.537 7.318 4.559 4.456 4.473 6.701 10.472 6.701 17.979 0 8.741-3.256 15.442-9.752 20.104-2.502 1.817-5.484 3.274-8.929 4.37-5.484 1.765-12.151 2.639-20.018 2.639-6.684 0-13.163-.6-19.402-1.8a97 97 0 0 1-8.929-2.159c-8.929-2.639-16.848-7.404-23.755-14.311l-27.423 27.405c10.558 10.78 22.281 18.236 35.187 22.401 7.678 2.485 15.991 4.216 24.938 5.21 6.067.686 12.443 1.029 19.093 1.029 7.061 0 13.831-.566 20.31-1.714a101 101 0 0 0 11.517-2.708c9.855-2.931 18.373-7.198 25.589-12.786q10.823-8.38 16.917-20.567c4.062-8.124 6.085-17.465 6.085-28.022-.002-9.751-1.322-18.475-3.961-26.204"/>
    <path style="fill:#fff" d="M275.71 151.407v36.866c-5.776-.977-11.329-1.457-16.659-1.457-9.821 0-17.413 2.005-22.761 6.033v-41.442c0-10.849 8.878-19.71 19.71-19.71a19.6 19.6 0 0 1 13.917 5.793c3.428 3.411 5.605 8.073 5.776 13.214.017.24.017.463.017.703m0 90.255v40.054c-2.108-.48-4.61-.943-7.524-1.371l-25.897-3.959a137 137 0 0 1-5.999-1.028v-42.351a33 33 0 0 0 3.719 1.936c3.154 1.423 7.061 2.451 11.723 3.051zm-20.018 91.077c7.867 0 14.534-.874 20.018-2.639v38.974c0 10.832-8.861 19.71-19.71 19.71-10.695 0-19.487-8.655-19.693-19.299-.017-.137-.017-.274-.017-.411v-38.135c6.239 1.2 12.717 1.8 19.402 1.8"/>
  </g>
  <g style="opacity:.5">
    <path style="fill:#ae8132" d="M256.001 472.633c-119.452 0-216.633-97.181-216.633-216.633s97.18-216.633 216.633-216.633c119.452 0 216.633 97.18 216.633 216.633s-97.181 216.633-216.633 216.633m0-378.029c-88.994 0-161.396 72.402-161.396 161.396s72.402 161.396 161.396 161.396S417.397 344.994 417.397 256 344.994 94.604 256.001 94.604"/>
  </g>
  <path style="fill:#efb832" d="M184 82.265a88 88 0 0 1 1.187 3.17q.501 1.42.725 2.697.226 1.272.117 2.461c-.069.789-.291 1.617-.664 2.474a9.4 9.4 0 0 1-2.057 3.002c-.874.854-2.02 1.563-3.434 2.118q-2.117.833-3.972.791a9.4 9.4 0 0 1-3.572-.786q-1.283-.563-2.17-1.359a8.6 8.6 0 0 1-1.572-1.89 18.4 18.4 0 0 1-1.29-2.473 90 90 0 0 1-1.291-3.129 91 91 0 0 1-1.183-3.166 19 19 0 0 1-.745-2.692 8.8 8.8 0 0 1-.134-2.453c.069-.791.293-1.617.664-2.474a9.4 9.4 0 0 1 2.077-3.009q1.327-1.291 3.45-2.123 2.121-.836 3.957-.786a9.5 9.5 0 0 1 3.552.791c.857.373 1.581.829 2.172 1.359a9.5 9.5 0 0 1 1.59 1.884q.704 1.088 1.307 2.466c.4.922.833 1.966 1.286 3.127m-4.753 1.869a56 56 0 0 0-1.204-2.861 18 18 0 0 0-.954-1.817q-.432-.701-.836-1.07a3.7 3.7 0 0 0-.893-.619 4.2 4.2 0 0 0-1.653-.437q-.911-.058-1.902.336c-.66.257-1.205.611-1.622 1.05a4.6 4.6 0 0 0-.947 1.457 3.8 3.8 0 0 0-.233 1.062q-.042.547.117 1.356.162.806.559 1.973.4 1.167 1.088 2.912a67 67 0 0 0 1.187 2.867q.502 1.128.929 1.81c.427.682.559.807.826 1.055a3.8 3.8 0 0 0 .898.618c.514.241 1.08.39 1.694.438q.915.075 1.91-.318c.659-.26 1.198-.613 1.612-1.068q.62-.68.904-1.461.194-.512.236-1.06.04-.55-.112-1.34-.151-.786-.534-1.961a57 57 0 0 0-1.07-2.922m28.828 4.867-14.273-12.715 4.284 15.481-4.922 1.363-6.984-25.224 4.395-1.215 14.263 12.682-4.276-15.446 4.927-1.361 6.981 25.22zm9.648-2.044-3.763-25.9 17.059-2.478.655 4.511-12.002 1.744.88 6.072 10.224-1.482.652 4.506-10.219 1.486.915 6.295 12.004-1.744.657 4.508zm48.418-21.253a8.5 8.5 0 0 1-.602 3.141 7.7 7.7 0 0 1-1.7 2.604q-1.108 1.117-2.728 1.753-1.621.64-3.638.632l-5.039-.022-.038 9.852-5.108-.018.101-26.174 10.144.04q2.023.008 3.64.657c1.076.431 1.979 1.026 2.712 1.774a7.8 7.8 0 0 1 1.68 2.617c.389.997.579 2.039.576 3.144m-5.11-.018q.008-1.618-1-2.613-1.007-1-2.771-1.003l-4.78-.02-.026 7.165 4.78.02q1.762.007 2.776-.962 1.014-.97 1.021-2.587m8.652 18.36 2.934-26.005 17.129 1.93-.51 4.529-12.054-1.357-.686 6.1 10.263 1.155-.512 4.531-10.264-1.158-.712 6.319 12.054 1.357-.51 4.531zm36.436 6.102-6.472-17.989-3.624 15.652-4.979-1.154 5.906-25.498 4.439 1.029 6.484 17.953 3.615-15.613 4.979 1.154-5.904 25.496zm24.092 7.881-4.201-18.647-5.531 15.08-4.798-1.762 9.015-24.567 4.277 1.571 4.212 18.615 5.521-15.048 4.796 1.762-9.015 24.572zm22.922-1.287-4.795 9.6-4.539-2.264 4.795-9.604-.141-17.323 4.964 2.478-.337 11.622 9.022-7.288 4.964 2.478zm-21.932 335.906a89 89 0 0 1-1.187-3.17 17 17 0 0 1-.725-2.697 9.3 9.3 0 0 1-.117-2.46c.069-.789.291-1.617.664-2.475a9.4 9.4 0 0 1 2.057-3.002c.874-.854 2.02-1.563 3.434-2.118q2.118-.833 3.972-.791a9.4 9.4 0 0 1 3.572.786q1.283.563 2.17 1.359a8.6 8.6 0 0 1 1.572 1.89c.461.729.888 1.553 1.29 2.473.405.924.832 1.965 1.291 3.129a92 92 0 0 1 1.183 3.165q.502 1.424.745 2.692a8.8 8.8 0 0 1 .134 2.453c-.069.792-.293 1.617-.664 2.474a9.4 9.4 0 0 1-2.077 3.01q-1.327 1.291-3.45 2.123-2.121.836-3.957.786a9.4 9.4 0 0 1-3.552-.792c-.857-.373-1.582-.829-2.172-1.359a9.5 9.5 0 0 1-1.59-1.884 17 17 0 0 1-1.307-2.466c-.4-.922-.832-1.966-1.286-3.126m4.753-1.87q.688 1.743 1.204 2.861.52 1.117.954 1.817.432.701.836 1.071.404.38.893.619c.495.256 1.047.396 1.653.437q.911.058 1.902-.336c.659-.257 1.204-.611 1.622-1.05.42-.444.736-.926.947-1.457q.193-.514.234-1.062t-.117-1.355q-.162-.807-.559-1.973a71 71 0 0 0-1.088-2.912 67 67 0 0 0-1.187-2.867 15 15 0 0 0-.929-1.81q-.426-.684-.826-1.055a3.8 3.8 0 0 0-.898-.618 4.9 4.9 0 0 0-1.694-.438q-.915-.075-1.91.318c-.659.26-1.198.613-1.612 1.068a4.4 4.4 0 0 0-.905 1.461q-.195.512-.236 1.06-.04.55.112 1.34.151.786.534 1.961c.259.781.614 1.758 1.07 2.92m-28.828-4.866 14.273 12.715-4.284-15.481 4.922-1.363 6.984 25.224-4.395 1.215-14.263-12.682 4.276 15.446-4.927 1.361-6.981-25.22zm-9.647 2.043 3.763 25.9-17.059 2.478-.655-4.511 12.002-1.744-.88-6.072-10.224 1.482-.652-4.506 10.219-1.486-.915-6.295-12.004 1.744-.657-4.508zm-48.419 21.253a8.5 8.5 0 0 1 .602-3.141 7.7 7.7 0 0 1 1.7-2.603q1.108-1.117 2.728-1.753 1.621-.64 3.638-.632l5.038.022.038-9.852 5.108.018-.101 26.174-10.144-.04q-2.023-.007-3.64-.657c-1.076-.431-1.979-1.026-2.712-1.774a7.8 7.8 0 0 1-1.68-2.617 8.6 8.6 0 0 1-.575-3.145m5.111.018q-.008 1.618 1 2.613 1.007.999 2.771 1.003l4.78.02.026-7.165-4.78-.02c-1.172-.004-2.101.316-2.776.962q-1.015.97-1.021 2.587m-8.652-18.36-2.934 26.005-17.129-1.93.51-4.529 12.054 1.357.686-6.1-10.264-1.155.512-4.531 10.264 1.158.712-6.319-12.054-1.357.51-4.531zm-36.436-6.102 6.472 17.989 3.624-15.652 4.979 1.154-5.906 25.498-4.439-1.029-6.484-17.953-3.615 15.613-4.979-1.154 5.904-25.496zm-24.092-7.881 4.2 18.647 5.531-15.08 4.798 1.762-9.015 24.567-4.277-1.571-4.213-18.616-5.521 15.048-4.796-1.762 9.015-24.572zm-22.923 1.287 4.795-9.6 4.539 2.264-4.795 9.604.141 17.323-4.964-2.478.337-11.622-9.022 7.288-4.964-2.478z"/>
  <path style="fill:#cc9322" d="M331.858 274.27c-2.639-7.713-6.907-14.208-12.786-19.487-4.679-4.679-10.266-8.329-16.762-10.969s-14.723-4.679-24.68-6.102l-1.92-.292-23.978-3.668c-4.662-.6-8.57-1.628-11.723-3.051a33 33 0 0 1-3.719-1.936 28 28 0 0 1-4.353-3.24c-2.245-2.228-3.805-4.662-4.73-7.301a25.1 25.1 0 0 1-1.371-8.227c0-7.524 2.691-13.968 8.073-19.35a19.4 19.4 0 0 1 2.382-2.04c5.348-4.028 12.94-6.033 22.761-6.033 5.33 0 10.883.48 16.659 1.457 1.936.326 3.891.703 5.879 1.131 7.918 1.731 15.237 5.844 21.938 12.34l26.806-26.514c-9.341-9.135-19.59-15.631-30.765-19.487-7.164-2.468-15.133-4.165-23.875-5.039-4.884-.514-10.026-.754-15.425-.754-8.638 0-16.642.874-23.978 2.64a77 77 0 0 0-7.713 2.245c-9.341 3.239-17.259 7.764-23.755 13.54-6.496 5.793-11.484 12.7-14.928 20.721-3.462 8.021-5.176 16.917-5.176 26.669 0 18.476 5.176 32.701 15.528 42.642 4.885 4.679 10.66 8.484 17.362 11.432 5.296 2.314 11.5 4.165 18.681 5.519 1.937.377 3.925.72 5.999 1.028l25.897 3.959c2.913.428 5.416.891 7.524 1.371 1.868.446 3.428.891 4.662 1.371 2.639 1.011 5.073 2.537 7.318 4.559 4.456 4.474 6.701 10.472 6.701 17.979 0 8.741-3.256 15.442-9.752 20.104-2.502 1.817-5.484 3.274-8.929 4.37-5.484 1.765-12.151 2.639-20.018 2.639-6.684 0-13.163-.6-19.402-1.8a97 97 0 0 1-8.929-2.16c-8.929-2.639-16.848-7.404-23.755-14.311l-27.423 27.405c10.558 10.78 22.281 18.236 35.187 22.401 7.678 2.485 15.991 4.216 24.938 5.21 6.067.686 12.443 1.029 19.093 1.029 7.061 0 13.831-.566 20.31-1.714a101 101 0 0 0 11.517-2.708c9.855-2.931 18.373-7.198 25.589-12.786q10.823-8.38 16.917-20.567c4.062-8.124 6.085-17.465 6.085-28.022-.002-9.749-1.322-18.473-3.961-26.203"/>
  <path style="fill:#cc9322" d="M275.71 147.167v36.866c-5.776-.977-11.329-1.457-16.659-1.457-9.821 0-17.413 2.005-22.761 6.033v-41.442c0-10.849 8.878-19.71 19.71-19.71a19.6 19.6 0 0 1 13.917 5.793c3.428 3.411 5.605 8.072 5.776 13.214.017.24.017.463.017.703m0 90.254v40.054c-2.108-.48-4.61-.943-7.524-1.371l-25.897-3.959a137 137 0 0 1-5.999-1.028v-42.351a33 33 0 0 0 3.719 1.936c3.154 1.423 7.061 2.451 11.723 3.051zm-20.018 91.077c7.867 0 14.534-.874 20.018-2.639v38.974c0 10.832-8.861 19.71-19.71 19.71-10.695 0-19.487-8.655-19.693-19.299-.017-.137-.017-.274-.017-.411v-38.134c6.239 1.199 12.717 1.799 19.402 1.799"/>
  <circle style="fill:#efb832" cx="65.963" cy="256" r="9.56"/>
  <circle style="fill:#efb832" cx="444.121" cy="256" r="9.56"/>
  <path style="opacity:.06;fill:#040000" d="M256.12 511.759c65.556 0 131.113-24.952 181.02-74.859 99.814-99.814 99.814-262.225 0-362.038C387.232 24.953 321.676 0 256.12 0z"/>
</svg>