<svg xmlns="http://www.w3.org/2000/svg" width="inherit" height="inherit" viewBox="0 0 375 375"
  fill="inherit" version="1.0">
  <path
    d="M362.832 19.793h-15.625V.012H205.926V17.41h-17.953v114.65h-17.399v17.953H144.57v16.48h-26.558v18.684H99.699v17.219H64.715V185.36H47.137v-17.578H29.559V132.06H12.16v105.129h16.856v17.953h18.312v17.77h17.399v17.577h17.578v17.035h17.394v70.875h35.723v-18.132h-17.77V342.87h17.575v-17.578h17.578v-17.398h17.77v17.398h16.917v53.117h35.285v-17.95h-17.035v-70.155h17.035v-17.77h18.133v-26.379h17.215v-61.52h17.953v17.036h17.035v-34.434H258.32V131.89h69.961v-17.578h-52.203l-.18-19.286h86.934ZM240.695 44.172h-17.578V26.594h17.578Zm0 0" />
</svg>