<svg height="inherit" width="inherit" xmlns="http://www.w3.org/2000/svg"
  viewBox="0 0 372.483 372.483"
  xml:space="preserve" stroke="inherit" fill="inherit">
  <g stroke-width="0"/>
  <g stroke-linecap="round" stroke-linejoin="round"/>
  <path d="M372.482 263.045c0-21.796-6.527-42.842-18.877-60.863-8.883-12.962-20.322-23.726-33.578-31.725 15.607-14.78 25.372-35.67 25.372-58.811 0-44.684-36.354-81.038-81.037-81.038-26.496 0-51.316 13.104-66.392 34.615-3.831-.558-7.745-.859-11.729-.859s-7.897.302-11.728.859c-15.077-21.511-39.897-34.615-66.392-34.615-44.684 0-81.038 36.354-81.038 81.038 0 23.141 9.765 44.031 25.373 58.811-13.257 7.998-24.696 18.763-33.578 31.724C6.528 220.203 0 241.249 0 263.045v45.075h78.121v33.755h216.242V308.12h78.12zM264.362 50.609c33.656 0 61.037 27.381 61.037 61.038s-27.381 61.038-61.037 61.038q-.904 0-1.81-.027c.046-.128.084-.259.129-.387a80 80 0 0 0 2.608-9.087c.049-.22.105-.438.152-.659.181-.836.34-1.68.495-2.526.073-.4.148-.799.215-1.2a81 81 0 0 0 .547-3.862c.079-.672.156-1.345.219-2.022.064-.691.112-1.383.158-2.076.036-.546.081-1.09.106-1.639q.083-1.766.09-3.536c0-.087.007-.172.007-.26 0-.047-.004-.094-.004-.141a83 83 0 0 0-.091-3.597q-.025-.52-.057-1.039a84 84 0 0 0-.231-3.03c-.022-.228-.04-.456-.063-.683-3.022-29.209-21.475-54.21-48.095-65.774 11.471-12.887 28.063-20.531 45.625-20.531m-99.24 37.522q.293-.105.587-.208a59 59 0 0 1 4.273-1.347 61 61 0 0 1 16.257-2.216 61.2 61.2 0 0 1 17.3 2.516q.7.205 1.391.426.935.3 1.856.629.284.098.566.2c20.413 7.549 35.718 25.716 39.182 47.763l.079.53q.165 1.122.287 2.255.047.416.089.834c.066.689.115 1.383.159 2.079.018.298.043.595.057.894q.063 1.334.068 2.682c0 .078.005.154.005.232l-.002.109c-.002.87-.028 1.734-.066 2.595q-.017.407-.04.812-.07 1.249-.189 2.482c-.031.318-.073.635-.109.952a64 64 0 0 1-.203 1.591q-.085.618-.182 1.232a60 60 0 0 1-.907 4.486 62 62 0 0 1-.637 2.42c-.091.319-.176.64-.272.956-.139.46-.289.916-.438 1.372q-.18.547-.37 1.09c-.144.411-.286.823-.438 1.231q-.389 1.04-.814 2.061c-.126.304-.26.605-.391.908a60 60 0 0 1-.765 1.689l-.093.198q-.141.298-.286.595a58 58 0 0 1-.92 1.793c-.123.23-.242.463-.368.692l-.024.043c-.346.63-.707 1.25-1.074 1.866q-.217.367-.439.73-.6.974-1.234 1.923c-.263.393-.538.778-.81 1.165q-.345.494-.698.98a62 62 0 0 1-1.592 2.074q-.503.631-1.021 1.249c-.215.255-.436.505-.655.756-.36.413-.719.827-1.089 1.23-.22.239-.448.469-.672.705a62 62 0 0 1-1.846 1.865c-.373.361-.744.723-1.126 1.074-.264.243-.535.479-.804.718a60 60 0 0 1-2.017 1.718q-.814.663-1.652 1.299-.227.174-.455.346c-10.16 7.553-22.736 12.03-36.34 12.03s-26.183-4.478-36.343-12.033l-.446-.34a60 60 0 0 1-1.659-1.305q-.344-.28-.684-.564a64 64 0 0 1-1.333-1.155c-.267-.238-.537-.472-.8-.714-.383-.352-.755-.715-1.129-1.076a62 62 0 0 1-1.852-1.871c-.221-.233-.447-.46-.664-.696-.371-.404-.73-.819-1.09-1.232-.219-.251-.439-.5-.654-.755a64 64 0 0 1-1.676-2.081q-.476-.614-.937-1.241-.354-.488-.699-.983c-.272-.386-.546-.77-.808-1.162a61 61 0 0 1-1.239-1.93q-.219-.359-.433-.721a61 61 0 0 1-1.089-1.892c-.129-.235-.251-.474-.378-.71a62 62 0 0 1-.922-1.798q-.158-.323-.312-.648l-.046-.099a60 60 0 0 1-.801-1.769c-.123-.283-.248-.565-.366-.849a62 62 0 0 1-.832-2.106c-.143-.382-.275-.768-.41-1.153a60 60 0 0 1-.404-1.192c-.141-.432-.283-.864-.415-1.298a59 59 0 0 1-.558-1.959c-.123-.461-.234-.926-.347-1.39a58 58 0 0 1-.254-1.097c-.1-.45-.201-.899-.291-1.351a60 60 0 0 1-.38-2.124c-.062-.384-.116-.769-.171-1.153a60 60 0 0 1-.219-1.715c-.032-.283-.069-.566-.098-.849a61 61 0 0 1-.194-2.544q-.02-.368-.036-.735a61 61 0 0 1-.07-2.745c0-.986.028-1.965.075-2.94.013-.265.035-.528.05-.792.044-.732.097-1.462.167-2.188q.038-.38.08-.757.127-1.18.299-2.345.032-.227.068-.454c3.453-22.06 18.761-40.239 39.182-47.793M47.083 111.647c0-33.656 27.381-61.038 61.038-61.038 17.563 0 34.154 7.645 45.625 20.529-26.629 11.568-45.086 36.581-48.099 65.802-.021.198-.036.397-.055.596a81 81 0 0 0-.239 3.137q-.029.48-.053.96a83 83 0 0 0-.096 3.77c0 1.276.037 2.549.097 3.821.024.512.066 1.019.099 1.528.049.732.099 1.464.167 2.194.06.649.134 1.294.21 1.939a79 79 0 0 0 .547 3.878q.112.65.232 1.297c.15.816.303 1.63.477 2.437.058.266.124.53.184.795a80 80 0 0 0 2.526 8.81c.064.185.12.372.185.556q-.905.027-1.809.027c-33.655-.001-61.036-27.382-61.036-61.038m47.805 127.501c-.22.347-.43.7-.646 1.049-.457.738-.91 1.478-1.348 2.225-.245.417-.481.837-.719 1.257a107 107 0 0 0-1.865 3.416q-.545 1.046-1.067 2.101-.33.662-.649 1.327c-.354.741-.695 1.488-1.032 2.236-.183.407-.371.811-.548 1.22-.39.896-.762 1.799-1.127 2.705-.107.265-.221.527-.325.792a106 106 0 0 0-1.326 3.553c-.096.273-.182.549-.277.822-.316.918-.624 1.839-.915 2.764-.133.425-.256.852-.384 1.278-.235.784-.466 1.569-.683 2.359q-.192.705-.375 1.413a99 99 0 0 0-.568 2.281 108 108 0 0 0-.822 3.776c-.093.467-.189.934-.276 1.403-.157.846-.298 1.696-.435 2.547-.064.4-.135.798-.195 1.198a107 107 0 0 0-.497 3.762l-.004.045q-.194 1.717-.333 3.443H20v-25.075c0-34.258 19.694-65.013 50.548-79.631a80.5 80.5 0 0 0 37.572 9.271c3.92 0 7.852-.29 11.754-.864a83 83 0 0 0 1.866 2.567c.216.283.44.559.66.839a81 81 0 0 0 1.935 2.39c.271.321.549.635.825.952a80 80 0 0 0 2.92 3.181 84 84 0 0 0 1.793 1.794c.228.221.443.455.673.674q-1.304.788-2.583 1.612c-.139.089-.275.183-.413.273q-1.28.831-2.533 1.697-.433.3-.865.604-1.117.787-2.213 1.602c-.231.172-.465.34-.694.514q-1.395 1.054-2.756 2.151c-.198.16-.392.325-.59.487a105 105 0 0 0-2.961 2.515 111 111 0 0 0-2.096 1.896c-.18.167-.364.331-.543.5a107 107 0 0 0-2.506 2.438q-.319.324-.635.65-.945.964-1.868 1.952-.367.392-.73.789-1.038 1.134-2.045 2.299c-.105.122-.214.24-.319.363q-1.146 1.341-2.251 2.722-.307.385-.61.775-.833 1.058-1.64 2.136-.313.415-.622.834a112 112 0 0 0-2.074 2.913 107 107 0 0 0-2.111 3.208m3.233 82.728v-25.075q0-1.665.062-3.319c.013-.363.042-.723.06-1.085.036-.736.07-1.473.124-2.206.033-.445.083-.886.123-1.33.058-.646.11-1.293.182-1.935.053-.47.122-.937.182-1.406.078-.611.151-1.223.241-1.831.073-.484.161-.964.241-1.446.098-.586.189-1.174.299-1.757.093-.493.201-.981.302-1.472.116-.566.227-1.134.354-1.696.112-.496.24-.987.36-1.481.135-.55.264-1.103.409-1.65.132-.497.278-.989.418-1.482.152-.537.3-1.075.462-1.608.151-.496.317-.988.476-1.481.17-.523.335-1.047.514-1.566.17-.491.353-.978.531-1.465.188-.514.372-1.03.569-1.54.188-.485.388-.964.583-1.446.205-.503.407-1.009.621-1.508.207-.481.425-.957.64-1.433.221-.491.44-.984.67-1.47.225-.475.461-.944.694-1.415.238-.48.473-.961.719-1.436.243-.468.496-.93.747-1.393.254-.469.505-.938.767-1.402.26-.46.53-.913.797-1.368.27-.458.538-.917.817-1.371.277-.451.563-.895.848-1.341.286-.447.57-.894.864-1.336s.596-.878.898-1.314c.301-.435.601-.87.909-1.3.31-.432.629-.858.948-1.285.316-.423.631-.846.954-1.263.326-.421.66-.836.994-1.252q.495-.619 1.001-1.229a92 92 0 0 1 1.037-1.213q.519-.603 1.05-1.198c.355-.396.718-.786 1.08-1.176q.541-.584 1.093-1.158.556-.575 1.125-1.139.565-.566 1.14-1.123.576-.553 1.163-1.096a94 94 0 0 1 1.185-1.085q.597-.533 1.205-1.056.609-.527 1.228-1.044a87 87 0 0 1 1.244-1.014q.631-.507 1.273-1.004a102 102 0 0 1 2.598-1.931 88 88 0 0 1 4.022-2.714 85 85 0 0 1 2.787-1.701 89 89 0 0 1 4.357-2.391q.714-.368 1.436-.723.57-.277 1.145-.547a80.5 80.5 0 0 0 37.572 9.27 80.5 80.5 0 0 0 37.572-9.27q.571.269 1.136.543a99 99 0 0 1 2.933 1.507 89 89 0 0 1 2.858 1.605 84 84 0 0 1 2.786 1.701 84 84 0 0 1 2.711 1.794q.668.46 1.327.93t1.305.954a83 83 0 0 1 2.554 1.972q.63.505 1.252 1.02.616.514 1.221 1.038a82 82 0 0 1 2.388 2.139q.592.548 1.174 1.107.57.552 1.129 1.112.572.569 1.133 1.147.548.57 1.086 1.15.55.589 1.089 1.186.526.589 1.041 1.187c.351.405.702.811 1.045 1.223q.504.606.995 1.221.506.625 1 1.259c.322.415.635.836.949 1.257.32.428.64.857.952 1.291.307.427.606.861.905 1.294.303.438.607.876.902 1.32.292.439.574.883.858 1.327.287.449.575.897.854 1.351.276.449.542.905.81 1.359.27.458.542.915.803 1.378s.511.93.764 1.396c.252.465.506.929.749 1.398.246.474.48.955.718 1.434.233.471.47.941.695 1.417.23.486.448.977.668 1.467.216.479.435.955.642 1.438.213.495.412.996.616 1.496.198.486.4.97.589 1.46.196.507.379 1.02.566 1.532.179.489.362.976.532 1.469.18.521.346 1.048.516 1.573.159.491.324.98.474 1.475.163.533.31 1.072.463 1.609.14.493.286.984.418 1.481.145.547.274 1.099.409 1.65.121.493.248.985.36 1.481.127.562.237 1.129.354 1.694.101.491.209.98.302 1.474.109.578.199 1.161.297 1.743.081.487.171.971.244 1.461.09.603.162 1.211.24 1.817.061.473.131.943.184 1.418.072.642.124 1.289.182 1.935.04.444.09.885.123 1.33.055.733.088 1.471.124 2.208.018.361.047.721.06 1.083q.062 1.654.062 3.319v25.076zm195.894-33.756a108 108 0 0 0-.836-7.263c-.057-.381-.125-.759-.186-1.139-.139-.871-.284-1.74-.445-2.606-.085-.456-.178-.91-.269-1.365q-.235-1.187-.496-2.366a113 113 0 0 0-1.273-5.121c-.219-.798-.453-1.592-.691-2.385-.126-.418-.246-.837-.377-1.254-.295-.939-.607-1.873-.928-2.805-.09-.26-.172-.523-.264-.783a107 107 0 0 0-1.33-3.564c-.1-.253-.209-.503-.311-.756q-.552-1.377-1.142-2.74c-.175-.403-.36-.801-.54-1.202-.34-.756-.684-1.509-1.042-2.257q-.316-.656-.64-1.308a108 108 0 0 0-1.774-3.435q-.571-1.054-1.166-2.097c-.238-.418-.473-.836-.716-1.251-.44-.751-.895-1.494-1.355-2.236-.214-.346-.422-.695-.64-1.038a109 109 0 0 0-2.113-3.209 113 113 0 0 0-2.075-2.914q-.307-.416-.618-.829-.811-1.084-1.647-2.145-.3-.385-.604-.766-1.107-1.385-2.257-2.729l-.303-.345a108 108 0 0 0-4.663-5.062c-.209-.213-.414-.428-.625-.639a109 109 0 0 0-2.513-2.444c-.175-.165-.355-.325-.531-.489a111 111 0 0 0-2.107-1.906q-.405-.356-.814-.71a108 108 0 0 0-2.146-1.804c-.197-.161-.39-.326-.588-.486a108 108 0 0 0-2.754-2.15c-.232-.175-.468-.345-.701-.518a108 108 0 0 0-5.584-3.884c-.148-.096-.293-.196-.441-.291q-1.277-.821-2.578-1.608c.224-.213.434-.44.655-.656q.93-.9 1.829-1.83a76 76 0 0 0 2.919-3.182c.268-.307.537-.612.8-.924a81 81 0 0 0 1.964-2.426c.21-.268.425-.532.631-.803a83 83 0 0 0 1.875-2.577c3.902.573 7.834.863 11.754.863a80.5 80.5 0 0 0 37.572-9.271c30.855 14.618 50.548 45.373 50.548 79.631v25.074z"/>
</svg>