<svg xmlns="http://www.w3.org/2000/svg" xmlns:xlink="http://www.w3.org/1999/xlink" width="1366" zoomAndPan="magnify" viewBox="0 0 1024.5 576" height="768" preserveAspectRatio="xMidYMid meet" version="1.0"><defs><filter x="0%" y="0%" width="100%" height="100%" id="56b40fb9e3"><feColorMatrix values="0 0 0 0 1 0 0 0 0 1 0 0 0 0 1 0 0 0 1 0" color-interpolation-filters="sRGB"/></filter><clipPath id="57066d7ed9"><path d="M 0 0.140625 L 1024 0.140625 L 1024 575.859375 L 0 575.859375 Z M 0 0.140625 " clip-rule="nonzero"/></clipPath><mask id="ccce5d636f"><g filter="url(#56b40fb9e3)"><rect x="-102.45" width="1229.4" fill="#000000" y="-57.6" height="691.2" fill-opacity="0.2"/></g></mask><clipPath id="35fd6ecccf"><path d="M 110 0.140625 L 1024 0.140625 L 1024 575.859375 L 110 575.859375 Z M 110 0.140625 " clip-rule="nonzero"/></clipPath><clipPath id="56c82e87d0"><path d="M 43 0.140625 L 961 0.140625 L 961 575.859375 L 43 575.859375 Z M 43 0.140625 " clip-rule="nonzero"/></clipPath><clipPath id="b4fe4e5a39"><path d="M 0 0.140625 L 1024 0.140625 L 1024 575.859375 L 0 575.859375 Z M 0 0.140625 " clip-rule="nonzero"/></clipPath><clipPath id="653a955b91"><path d="M 0 4 L 947 4 L 947 575.859375 L 0 575.859375 Z M 0 4 " clip-rule="nonzero"/></clipPath><clipPath id="e0a2af09e9"><rect x="0" width="1024" y="0" height="576"/></clipPath></defs><g clip-path="url(#57066d7ed9)"><g mask="url(#ccce5d636f)"><g transform="matrix(1, 0, 0, 1, 0, 0.000000000000055289)"><g clip-path="url(#e0a2af09e9)"><g clip-path="url(#35fd6ecccf)"><path fill="#ff007f" d="M 723.445312 312.179688 C 721.46875 326.226562 719.777344 339.808594 717.519531 353.285156 C 714.664062 370.324219 711.566406 387.324219 708.164062 404.261719 C 704.835938 420.832031 701.125 437.324219 697.316406 453.789062 C 694.152344 467.472656 690.75 481.109375 687.199219 494.695312 C 681.777344 515.441406 676.019531 536.09375 670.632812 556.84375 C 668.296875 565.84375 666.300781 574.953125 664.601562 584.097656 C 663.84375 588.164062 663.890625 592.449219 664.132812 596.605469 C 664.535156 603.585938 668.617188 607.246094 675.644531 607.351562 C 683.929688 607.476562 691.265625 604.144531 698.269531 600.34375 C 721.699219 587.628906 741.035156 569.757812 759.777344 551.105469 C 778.488281 532.488281 796.007812 512.796875 812.792969 492.476562 C 827.15625 475.089844 841.046875 457.292969 854.789062 439.402344 C 869.234375 420.601562 883.269531 401.488281 897.453125 382.488281 C 908.34375 367.890625 919.003906 353.109375 930.109375 338.679688 C 940.863281 324.695312 951.960938 310.976562 963.082031 297.28125 C 971.933594 286.378906 980.921875 275.589844 990.082031 264.957031 C 1006.1875 246.257812 1022.992188 228.195312 1040.824219 211.117188 C 1053.285156 199.183594 1066.003906 187.519531 1078.34375 175.460938 C 1082.515625 171.382812 1086.066406 166.609375 1089.53125 161.886719 C 1091.28125 159.5 1093.050781 156.359375 1091.035156 153.433594 C 1088.765625 150.144531 1085.128906 151.460938 1082.09375 152.238281 C 1073.855469 154.355469 1066.765625 158.898438 1060.085938 163.898438 C 1044.488281 175.566406 1030.941406 189.417969 1018.527344 204.375 C 1001.199219 225.242188 983.753906 246.015625 966.75 267.15625 C 953.925781 283.105469 941.675781 299.515625 929.261719 315.789062 C 919.707031 328.3125 910.1875 340.859375 900.839844 353.539062 C 891.613281 366.050781 882.90625 378.964844 873.46875 391.320312 C 856.199219 413.925781 838.875 436.511719 820.960938 458.601562 C 809.03125 473.324219 796.367188 487.488281 783.4375 501.347656 C 769.59375 516.183594 754.785156 530.101562 738.007812 541.652344 C 732.25 545.613281 726.09375 549.0625 719.027344 550.589844 C 710 552.539062 703.839844 549.011719 702.609375 539.808594 C 701.714844 533.078125 701.347656 526.105469 702.03125 519.371094 C 703.355469 506.34375 705.242188 493.34375 707.519531 480.441406 C 711.4375 458.175781 715.890625 435.996094 720.015625 413.765625 C 723.339844 395.832031 726.84375 377.921875 729.652344 359.910156 C 733.519531 335.125 736.75 310.25 740.351562 285.425781 C 744.34375 257.953125 747.660156 230.382812 749.09375 202.671875 C 750.132812 182.542969 750.355469 162.347656 750.179688 142.195312 C 749.996094 120.632812 746.496094 99.34375 741.816406 78.375 C 737.679688 59.851562 732.3125 41.597656 727.234375 23.292969 C 721.601562 2.992188 715.054688 -17.082031 710.074219 -37.539062 C 705.722656 -55.4375 703.265625 -73.738281 702.136719 -92.21875 C 700.585938 -117.546875 701.617188 -142.816406 702.691406 -168.09375 C 703.242188 -181.011719 704.171875 -193.914062 704.9375 -206.820312 C 705.535156 -216.867188 706.378906 -226.90625 706.695312 -236.960938 C 707.128906 -250.714844 705.21875 -264.320312 702.199219 -277.664062 C 699.683594 -288.785156 695.636719 -299.515625 688.550781 -308.738281 C 676.582031 -324.304688 663.214844 -328.773438 643.835938 -325.242188 C 634.113281 -323.46875 625.746094 -318.429688 617.894531 -312.707031 C 602.09375 -301.195312 589.625 -286.433594 577.867188 -270.996094 C 562.671875 -251.042969 549.1875 -229.980469 536.953125 -208.128906 C 528.441406 -192.925781 520.003906 -177.65625 512.164062 -162.09375 C 502.617188 -143.144531 493.449219 -123.980469 484.660156 -104.667969 C 478.3125 -90.703125 472.695312 -76.386719 467.042969 -62.113281 C 459.925781 -44.117188 453.015625 -26.039062 446.175781 -7.9375 C 439.542969 9.625 433.210938 27.300781 426.558594 44.859375 C 419.914062 62.410156 413.320312 79.996094 406.179688 97.347656 C 398.242188 116.644531 390.167969 135.910156 381.328125 154.808594 C 370.011719 179.015625 357.996094 202.910156 344.160156 225.808594 C 333.277344 243.824219 322.546875 261.949219 311.050781 279.570312 C 297.894531 299.738281 283.777344 319.25 268.875 338.203125 C 250.324219 361.804688 230.277344 384.089844 209.941406 406.101562 C 198.898438 418.050781 187.042969 429.304688 175.089844 440.371094 C 168.304688 446.65625 161.015625 452.542969 151.859375 455.453125 C 144.699219 457.738281 138.71875 455.367188 136.320312 448.265625 C 133.371094 439.535156 132.164062 430.433594 133.050781 421.242188 C 134.230469 408.9375 135.453125 396.617188 137.367188 384.410156 C 139.15625 372.980469 141.824219 361.683594 144.199219 350.351562 C 146.734375 338.261719 149.285156 326.1875 151.988281 314.136719 C 155.972656 296.347656 160.109375 278.597656 164.128906 260.820312 C 164.921875 257.296875 165.480469 253.714844 166.203125 250.175781 C 170.21875 230.636719 174.285156 211.113281 178.257812 191.566406 C 181.472656 175.746094 184.667969 159.921875 187.710938 144.070312 C 191.214844 125.789062 194.730469 107.507812 197.894531 89.160156 C 201.476562 68.378906 204.769531 47.542969 207.996094 26.703125 C 209.796875 15.0625 210.964844 3.320312 212.851562 -8.3125 C 216.03125 -28.011719 218.921875 -47.785156 223.125 -67.273438 C 226.921875 -84.894531 232.625 -102.023438 239.921875 -118.636719 C 250 -141.59375 263.585938 -162.308594 278.972656 -181.921875 C 294.429688 -201.617188 310.285156 -221 325.691406 -240.742188 C 337.023438 -255.269531 347.015625 -270.726562 354.996094 -287.375 C 360.195312 -298.234375 363.886719 -309.707031 365.039062 -321.671875 C 365.945312 -331.109375 363.976562 -340.328125 357.148438 -347.601562 C 353.953125 -351 350.273438 -354.105469 344.125 -352.859375 C 344.808594 -351.125 345.183594 -349.75 345.851562 -348.53125 C 352.421875 -336.46875 354.042969 -323.65625 351 -310.398438 C 348.699219 -300.386719 344.925781 -290.816406 340.128906 -281.710938 C 330.160156 -262.785156 316.640625 -246.394531 303.125 -229.988281 C 288.175781 -211.84375 273.15625 -193.761719 258.597656 -175.316406 C 248.011719 -161.90625 238.960938 -147.429688 230.59375 -132.496094 C 221.84375 -116.875 214.726562 -100.558594 208.585938 -83.800781 C 206.433594 -77.925781 204.519531 -71.90625 203.167969 -65.804688 C 200.453125 -53.570312 197.726562 -41.300781 195.867188 -28.921875 C 193.046875 -10.140625 190.824219 8.726562 188.613281 27.59375 C 187.332031 38.546875 186.832031 49.589844 185.5 60.539062 C 183.65625 75.613281 181.367188 90.640625 179.238281 105.679688 C 178.015625 114.339844 176.921875 123.027344 175.449219 131.644531 C 172.078125 151.296875 168.621094 170.9375 164.980469 190.535156 C 162.074219 206.214844 158.945312 221.855469 155.742188 237.480469 C 152.355469 254.03125 148.886719 270.570312 145.253906 287.078125 C 141.988281 301.902344 138.511719 316.675781 135.039062 331.445312 C 130.820312 349.367188 126.214844 367.199219 122.3125 385.191406 C 118.972656 400.582031 116 416.082031 113.578125 431.636719 C 110.617188 450.644531 108.945312 469.78125 111.273438 489.054688 C 111.875 494.035156 113.152344 498.726562 115.835938 503.007812 C 118.710938 507.578125 122.085938 509.144531 127.414062 507.765625 C 129.9375 507.109375 132.445312 506.019531 134.667969 504.664062 C 144.984375 498.375 153.296875 489.722656 161.359375 480.945312 C 175.730469 465.3125 189.734375 449.339844 203.742188 433.382812 C 213.492188 422.265625 223.023438 410.949219 232.589844 399.675781 C 241.425781 389.269531 250.40625 378.964844 258.910156 368.292969 C 268.367188 356.433594 277.738281 344.476562 286.457031 332.074219 C 298.226562 315.324219 309.664062 298.320312 320.625 281.03125 C 330.164062 265.980469 339.164062 250.550781 347.8125 234.960938 C 357.464844 217.535156 366.761719 199.902344 375.617188 182.058594 C 382.019531 169.164062 387.613281 155.859375 393.257812 142.601562 C 399.722656 127.4375 406.042969 112.203125 412.0625 96.859375 C 418.433594 80.609375 424.398438 64.207031 430.496094 47.847656 C 432.8125 41.625 434.941406 35.328125 437.246094 29.097656 C 443.363281 12.570312 449.515625 -3.945312 455.671875 -20.460938 C 459.578125 -30.953125 463.371094 -41.484375 467.488281 -51.890625 C 471.75 -62.65625 476.277344 -73.316406 480.792969 -83.976562 C 484.785156 -93.402344 488.726562 -102.851562 493.039062 -112.128906 C 500.148438 -127.433594 507.324219 -142.714844 514.867188 -157.808594 C 520.71875 -169.515625 526.949219 -181.054688 533.40625 -192.4375 C 540.328125 -204.644531 547.414062 -216.785156 554.984375 -228.59375 C 562.144531 -239.757812 569.796875 -250.628906 577.648438 -261.324219 C 589.363281 -277.277344 602.164062 -292.3125 618.410156 -303.910156 C 628.082031 -310.8125 638.496094 -316.089844 650.898438 -316.148438 C 662.582031 -316.207031 671.714844 -311.378906 679.054688 -302.5625 C 688.78125 -290.886719 692.835938 -276.96875 694.839844 -262.316406 C 695.847656 -254.988281 696.703125 -247.574219 696.824219 -240.191406 C 696.964844 -232.035156 696.316406 -223.855469 695.804688 -215.699219 C 694.828125 -200.144531 693.742188 -184.59375 692.617188 -169.042969 C 691.890625 -159.003906 690.644531 -148.988281 690.320312 -138.9375 C 689.734375 -121.070312 689.386719 -103.183594 689.445312 -85.308594 C 689.511719 -65.300781 692.207031 -45.460938 695.355469 -25.769531 C 698.171875 -8.171875 701.890625 9.304688 706.945312 26.464844 C 709.625 35.5625 711.667969 44.847656 713.867188 54.078125 C 717.300781 68.476562 721.105469 82.8125 723.882812 97.339844 C 727.160156 114.492188 730.179688 131.75 732.101562 149.101562 C 734.472656 170.488281 734.636719 192.046875 733.175781 213.53125 C 731.769531 234.199219 729.9375 254.847656 727.960938 275.46875 C 726.816406 287.566406 725 299.601562 723.445312 312.179688 Z M 723.445312 312.179688 " fill-opacity="1" fill-rule="nonzero"/></g><g clip-path="url(#56c82e87d0)"><path fill="#ff007f" d="M 470.328125 14.839844 C 477.160156 -2.722656 483.726562 -19.917969 490.492188 -37.027344 C 494.542969 -47.257812 498.671875 -57.472656 503.195312 -67.5 C 508.730469 -79.78125 514.632812 -91.902344 520.535156 -104.015625 C 524.355469 -111.855469 528.265625 -119.664062 532.484375 -127.292969 C 538.539062 -138.246094 544.644531 -149.191406 551.222656 -159.835938 C 557.996094 -170.804688 565.160156 -181.546875 572.507812 -192.136719 C 581.714844 -205.410156 592.03125 -217.8125 604.621094 -228.039062 C 609.582031 -232.070312 615.023438 -235.628906 621.773438 -236.5 C 629.285156 -237.472656 635.269531 -234.546875 638.824219 -227.894531 C 642.578125 -220.863281 643.984375 -213.28125 644.707031 -205.457031 C 646.640625 -184.710938 645.089844 -164.011719 644.03125 -143.308594 C 643.425781 -131.53125 642.871094 -119.746094 642.433594 -107.964844 C 641.292969 -77.332031 641.402344 -46.691406 642.847656 -16.070312 C 643.503906 -2.210938 644.585938 11.640625 645.855469 25.457031 C 647.230469 40.398438 648.804688 55.324219 650.726562 70.207031 C 652.894531 86.964844 655.835938 103.621094 657.902344 120.386719 C 660.339844 140.179688 662.417969 160.019531 664.277344 179.871094 C 667.835938 217.78125 669.234375 255.800781 668.566406 293.867188 C 668.304688 308.886719 667.675781 323.921875 666.542969 338.898438 C 665.40625 353.859375 663.804688 368.808594 661.722656 383.664062 C 659.800781 397.363281 657.296875 411.007812 654.476562 424.558594 C 650.6875 442.769531 646.800781 460.984375 642.128906 478.980469 C 636.738281 499.726562 630.234375 520.179688 622.277344 540.101562 C 616.226562 555.253906 608.652344 569.65625 600.085938 583.59375 C 588.035156 603.191406 574.035156 621.351562 560.203125 639.671875 C 554.253906 647.550781 548.816406 655.847656 544.949219 664.96875 C 542.269531 671.285156 540.867188 678.039062 541.09375 684.988281 C 541.535156 698.269531 549.046875 706.144531 560.957031 709.5625 C 572.136719 712.765625 583.347656 712.453125 594.792969 710.855469 C 607.996094 709.015625 621.019531 706.546875 633.75 702.6875 C 648.101562 698.332031 662.105469 692.976562 675.398438 686.007812 C 685.46875 680.730469 695.355469 675.078125 705.101562 669.234375 C 718.320312 661.3125 730.542969 651.914062 741.972656 641.660156 C 757.496094 627.730469 772.765625 613.472656 787.492188 598.707031 C 801.941406 584.214844 815.832031 569.136719 829.515625 553.914062 C 848.410156 532.886719 866.882812 511.480469 885.527344 490.230469 C 899.664062 474.125 913.875 458.082031 927.886719 441.871094 C 937.691406 430.527344 947.261719 418.984375 956.816406 407.433594 C 958.179688 405.785156 958.882812 403.589844 960.191406 401.054688 C 955.195312 400.582031 952.199219 403.003906 949.304688 405.167969 C 936.597656 414.652344 925.582031 425.972656 915.144531 437.816406 C 897.71875 457.585938 880.625 477.644531 863.25 497.460938 C 844.984375 518.289062 826.78125 539.1875 808.109375 559.648438 C 793.292969 575.875 778.210938 591.90625 762.496094 607.257812 C 749.894531 619.574219 736.503906 631.152344 722.835938 642.285156 C 709.738281 652.957031 695.414062 661.96875 680.414062 669.894531 C 665.59375 677.722656 650.183594 683.996094 634.175781 688.878906 C 618.046875 693.804688 601.617188 696.367188 584.710938 695.238281 C 579.742188 694.90625 574.921875 694.117188 570.558594 691.425781 C 561.851562 686.058594 558.910156 678.675781 560.90625 668.625 C 563.109375 657.480469 569.183594 648.269531 575.164062 639.054688 C 584.65625 624.425781 594.480469 609.996094 604.296875 595.570312 C 612.871094 582.972656 619.800781 569.480469 626.171875 555.714844 C 630.152344 547.121094 633.617188 538.234375 636.632812 529.253906 C 641.292969 515.40625 645.519531 501.40625 649.65625 487.386719 C 655.632812 467.160156 660.5 446.660156 664.75 426.003906 C 668.96875 405.519531 672.824219 384.996094 675.140625 364.210938 C 676.785156 349.488281 678.109375 334.730469 679.792969 320.015625 C 683.226562 290.035156 682.460938 259.960938 681.410156 229.941406 C 680.652344 208.304688 678.332031 186.703125 676.320312 165.128906 C 675.050781 151.507812 673.265625 137.933594 671.363281 124.382812 C 669.167969 108.773438 666.390625 93.246094 664.21875 77.640625 C 661.46875 57.875 659.148438 38.058594 656.515625 18.277344 C 651.066406 -22.609375 651.453125 -63.703125 652.464844 -104.792969 C 652.859375 -120.746094 653.917969 -136.726562 655.539062 -152.597656 C 657.632812 -173.058594 658.835938 -193.535156 658.714844 -214.082031 C 658.644531 -225.308594 657.867188 -236.5 653.511719 -247.117188 C 651.144531 -252.90625 647.9375 -257.84375 642.246094 -260.921875 C 637.207031 -263.644531 632.199219 -263.667969 626.875 -261.816406 C 615.410156 -257.820312 606.695312 -250.0625 598.417969 -241.621094 C 583.726562 -226.636719 571.734375 -209.515625 560.496094 -191.964844 C 550.492188 -176.332031 541.429688 -160.074219 532.496094 -143.785156 C 524.738281 -129.644531 517.441406 -115.222656 510.492188 -100.667969 C 504.195312 -87.492188 498.484375 -74.03125 492.796875 -60.574219 C 486.667969 -46.078125 480.742188 -31.492188 474.941406 -16.859375 C 470.894531 -6.632812 467.15625 3.722656 463.375 14.054688 C 457 31.511719 450.664062 48.984375 444.378906 66.476562 C 440.464844 77.363281 436.773438 88.328125 432.800781 99.191406 C 426.875 115.402344 420.847656 131.574219 414.753906 147.722656 C 410.734375 158.375 406.707031 169.03125 402.34375 179.542969 C 398.347656 189.171875 393.949219 198.644531 389.617188 208.136719 C 385.757812 216.589844 381.871094 225.039062 377.769531 233.375 C 372.160156 244.769531 366.492188 256.144531 360.535156 267.367188 C 354.761719 278.246094 348.765625 289.019531 342.558594 299.660156 C 335.109375 312.425781 327.4375 325.070312 319.675781 337.648438 C 313.996094 346.84375 308.167969 355.960938 302.113281 364.917969 C 294.78125 375.757812 287.433594 386.605469 279.570312 397.0625 C 269.09375 410.996094 258.1875 424.617188 247.320312 438.261719 C 238.234375 449.679688 228.828125 460.84375 219.785156 472.296875 C 210.503906 484.046875 201.183594 495.792969 192.433594 507.933594 C 182.453125 521.769531 172.875 535.917969 163.507812 550.179688 C 157.792969 558.878906 152.730469 568.023438 147.484375 577.027344 C 137.546875 594.066406 127.953125 611.332031 116.335938 627.296875 C 110.976562 634.664062 105.058594 641.605469 96.734375 646.046875 C 89.042969 650.15625 81.390625 649.714844 75.433594 643.320312 C 71.882812 639.507812 68.851562 634.890625 66.75 630.121094 C 63.242188 622.136719 61.226562 613.617188 59.542969 604.996094 C 54.425781 578.777344 55.101562 552.308594 56.402344 525.925781 C 57.265625 508.3125 59.695312 490.726562 62.320312 473.265625 C 65.082031 454.863281 68.625 436.5625 72.363281 418.332031 C 75.832031 401.414062 80.066406 384.652344 83.859375 367.796875 C 86.355469 356.675781 88.714844 345.515625 91.042969 334.355469 C 94.066406 319.851562 97.273438 305.382812 99.894531 290.804688 C 102.714844 275.09375 105.195312 259.316406 107.367188 243.5 C 109.484375 228.066406 111.394531 212.582031 112.722656 197.058594 C 114.410156 177.355469 115.355469 157.59375 116.738281 137.863281 C 118.59375 111.300781 119.816406 84.664062 122.71875 58.210938 C 124.863281 38.605469 128.550781 19.085938 132.855469 -0.171875 C 136.78125 -17.753906 141.878906 -35.128906 147.535156 -52.242188 C 153.550781 -70.433594 160.84375 -88.210938 169.941406 -105.144531 C 177.300781 -118.839844 184.394531 -132.722656 192.503906 -145.976562 C 201.003906 -159.875 210.246094 -173.34375 219.742188 -186.59375 C 231.003906 -202.308594 243.011719 -217.492188 254.441406 -233.089844 C 263.292969 -245.171875 272.496094 -257.101562 278.503906 -270.953125 C 280.355469 -275.214844 281.535156 -279.96875 281.957031 -284.589844 C 282.53125 -290.90625 279.914062 -293.90625 274.082031 -296.25 C 268.414062 -298.535156 262.628906 -298.84375 256.699219 -297.925781 C 237.628906 -294.988281 219.296875 -289.511719 201.789062 -281.433594 C 189.394531 -275.714844 177 -269.988281 164.859375 -263.769531 C 157.136719 -259.808594 149.882812 -254.929688 142.414062 -250.460938 C 142.597656 -250.039062 142.785156 -249.621094 142.964844 -249.203125 C 145.785156 -250.101562 148.683594 -250.8125 151.414062 -251.929688 C 170.375 -259.6875 189.277344 -267.46875 209.421875 -271.929688 C 217.09375 -273.632812 224.65625 -275.097656 232.492188 -274.875 C 234.949219 -274.804688 237.511719 -274.664062 239.816406 -273.914062 C 247.773438 -271.316406 249.59375 -268.027344 248.890625 -260.433594 C 248.128906 -252.238281 244.386719 -245.058594 240.132812 -238.355469 C 229.882812 -222.183594 219.046875 -206.386719 208.613281 -190.328125 C 199.3125 -176.003906 189.816406 -161.78125 181.1875 -147.0625 C 171.609375 -130.722656 162.289062 -114.171875 154.035156 -97.144531 C 147.015625 -82.660156 141.390625 -67.472656 135.640625 -52.40625 C 129.210938 -35.5625 124.355469 -18.222656 120.042969 -0.699219 C 116.136719 15.171875 112.515625 31.074219 110.050781 47.238281 C 108.015625 60.566406 105.628906 73.847656 103.75 87.191406 C 102.609375 95.285156 101.976562 103.457031 101.410156 111.613281 C 99.65625 136.648438 98.222656 161.710938 96.3125 186.734375 C 94.277344 213.46875 92.394531 240.242188 89.386719 266.878906 C 87.214844 286.109375 83.554688 305.1875 80.113281 324.25 C 77.046875 341.253906 73.449219 358.160156 69.945312 375.078125 C 65.75 395.339844 61.121094 415.511719 57.226562 435.832031 C 54.253906 451.304688 52.347656 466.980469 49.574219 482.496094 C 46.285156 500.894531 45.226562 519.488281 44.230469 538.082031 C 43.605469 549.847656 42.742188 561.675781 43.332031 573.40625 C 44.132812 589.339844 45.671875 605.28125 47.953125 621.066406 C 49.519531 631.914062 52.398438 642.660156 57.027344 652.746094 C 59.976562 659.171875 63.917969 664.804688 69.273438 669.632812 C 76.078125 675.761719 87.601562 675.46875 94.992188 671.261719 C 103.523438 666.40625 110.332031 659.484375 116.011719 651.546875 C 127.859375 634.996094 137.210938 616.957031 147.050781 599.203125 C 158.921875 577.800781 170.9375 556.5 184.691406 536.175781 C 201.949219 510.671875 221.023438 486.625 240.523438 462.855469 C 258.804688 440.566406 277.101562 418.261719 293.121094 394.242188 C 305.738281 375.3125 318.375 356.382812 330.488281 337.128906 C 338.355469 324.613281 345.597656 311.675781 352.578125 298.644531 C 363.226562 278.757812 373.675781 258.753906 383.699219 238.539062 C 390.507812 224.796875 396.792969 210.761719 402.671875 196.589844 C 410.015625 178.894531 416.828125 160.972656 423.621094 143.058594 C 428.804688 129.402344 433.597656 115.601562 438.574219 101.867188 C 446.070312 81.179688 453.566406 60.496094 461.082031 39.820312 C 464.097656 31.613281 467.132812 23.433594 470.328125 14.839844 Z M 470.328125 14.839844 " fill-opacity="1" fill-rule="nonzero"/></g><g clip-path="url(#b4fe4e5a39)"><path fill="#ff007f" d="M 698.070312 738.246094 C 717.9375 728.59375 736.742188 717.933594 754.105469 704.945312 C 774.15625 689.949219 794.019531 674.710938 813.886719 659.472656 C 831.964844 645.609375 850.089844 631.785156 869.554688 619.9375 C 889.054688 608.058594 909.457031 598.089844 931.578125 591.679688 C 946.214844 587.4375 960.957031 585.664062 976.046875 585.980469 C 988.625 586.242188 1001.152344 586.15625 1013.601562 583.96875 C 1022.710938 582.371094 1031.363281 579.75 1038.710938 573.898438 C 1041.554688 571.632812 1043.9375 568.996094 1044.304688 564.988281 C 1044.785156 559.71875 1041.84375 556.339844 1038.164062 553.496094 C 1031.878906 548.648438 1024.546875 545.867188 1016.855469 544.476562 C 996.730469 540.824219 976.835938 541.699219 956.976562 547.160156 C 941.464844 551.425781 926.792969 557.511719 912.65625 564.9375 C 898.535156 572.359375 885.347656 581.335938 872.492188 590.789062 C 850.3125 607.101562 829.847656 625.472656 808.980469 643.375 C 791.566406 658.304688 773.96875 673.035156 755.972656 687.253906 C 737.195312 702.085938 717.039062 714.863281 695.460938 725.394531 C 679.054688 733.402344 662.386719 740.664062 644.800781 745.578125 C 631.847656 749.199219 618.835938 752.683594 605.683594 755.464844 C 594.386719 757.851562 582.902344 759.601562 571.414062 760.800781 C 557.75 762.226562 543.9375 762.167969 530.585938 758.570312 C 512.007812 753.558594 498.1875 742.675781 493.121094 723.355469 C 489.628906 710.023438 491.015625 696.714844 495.167969 683.480469 C 500.152344 667.625 508.472656 653.707031 518.390625 640.648438 C 525.257812 631.601562 532.789062 623.066406 539.695312 614.050781 C 547.648438 603.667969 555.417969 593.128906 562.933594 582.429688 C 571.78125 569.839844 578.894531 556.222656 585.488281 542.339844 C 587.601562 537.890625 589.703125 533.359375 591.140625 528.664062 C 595.699219 513.785156 599.988281 498.820312 604.296875 483.863281 C 609.773438 464.84375 612.671875 445.292969 615.765625 425.804688 C 617.578125 414.359375 618.46875 402.777344 619.929688 391.273438 C 622.523438 370.878906 623.464844 350.386719 623.792969 329.855469 C 624.097656 311.023438 624.839844 292.171875 624.394531 273.351562 C 623.796875 248.257812 622.605469 223.164062 620.964844 198.117188 C 619.9375 182.398438 617.613281 166.761719 615.871094 151.085938 C 614.214844 136.171875 612.59375 121.261719 610.910156 106.351562 C 608.925781 88.800781 606.8125 71.265625 604.902344 53.710938 C 603.480469 40.667969 602.386719 27.59375 600.96875 14.550781 C 599.511719 1.144531 598.3125 -12.324219 596.132812 -25.617188 C 594.078125 -38.148438 592.71875 -50.890625 588.128906 -62.910156 C 586.484375 -67.207031 584.59375 -71.34375 581.007812 -74.375 C 577.480469 -77.359375 573.671875 -77.757812 569.351562 -75.703125 C 562.800781 -72.585938 557.933594 -67.554688 553.511719 -62.117188 C 543.050781 -49.265625 534.753906 -35.023438 527.171875 -20.316406 C 517.945312 -2.425781 509.367188 15.746094 502.023438 34.480469 C 493.511719 56.195312 485.046875 77.9375 476.769531 99.746094 C 471.65625 113.222656 466.910156 126.839844 462.023438 140.402344 C 456.753906 155.035156 451.652344 169.730469 446.21875 184.304688 C 439.851562 201.367188 433.492188 218.433594 426.617188 235.289062 C 418.457031 255.296875 410.066406 275.230469 401.183594 294.925781 C 393.398438 312.203125 385.335938 329.40625 376.402344 346.113281 C 366.214844 365.175781 355.171875 383.796875 344.039062 402.332031 C 337.210938 413.699219 329.839844 424.773438 322.128906 435.5625 C 313.082031 448.207031 303.550781 460.515625 293.9375 472.742188 C 285.027344 484.074219 275.820312 495.1875 266.582031 506.253906 C 257.589844 517.039062 248.199219 527.492188 239.332031 538.375 C 229.757812 550.128906 220.414062 562.082031 211.292969 574.191406 C 199.171875 590.285156 189.3125 607.855469 179.15625 625.195312 C 173.03125 635.652344 167.621094 646.527344 161.8125 657.167969 C 151.617188 675.839844 141.332031 694.429688 126.691406 710.1875 C 114.988281 722.777344 101.742188 733 84.929688 737.589844 C 71.414062 741.28125 58.542969 739.136719 46.71875 731.601562 C 34.304688 723.691406 26.21875 712.113281 20.003906 699.082031 C 12.09375 682.496094 7.71875 664.898438 4.230469 646.902344 C -0.757812 621.148438 -1.554688 595.125 -1.722656 569.09375 C -1.886719 543.804688 -0.570312 518.496094 2.578125 493.367188 C 5.292969 471.691406 8.738281 450.105469 11.867188 428.488281 C 15.265625 404.988281 18.800781 381.507812 22.042969 357.984375 C 24.117188 342.925781 25.816406 327.8125 27.59375 312.71875 C 29.414062 297.25 31.097656 281.765625 32.886719 266.289062 C 34.152344 255.34375 35.316406 244.386719 36.847656 233.472656 C 38.945312 218.625 41.367188 203.816406 43.605469 188.984375 C 44.542969 182.785156 45.328125 176.554688 46.285156 170.359375 C 48.375 156.835938 50.457031 143.316406 52.679688 129.820312 C 55.730469 111.265625 58.695312 92.699219 62.089844 74.210938 C 65.207031 57.214844 68.417969 40.207031 72.363281 23.390625 C 76.820312 4.359375 81.761719 -14.582031 87.191406 -33.363281 C 92.515625 -51.773438 98.789062 -69.910156 104.492188 -88.210938 C 108.171875 -100.007812 111.765625 -111.832031 113.460938 -124.132812 C 114.023438 -128.199219 113.878906 -132.0625 111.953125 -135.800781 C 110.863281 -137.914062 109.242188 -138.824219 106.949219 -138.925781 C 101.46875 -139.171875 96.824219 -135.015625 96.449219 -129.207031 C 96.0625 -123.140625 96.441406 -116.96875 95.523438 -110.996094 C 93.945312 -100.679688 91.921875 -90.414062 89.519531 -80.253906 C 87.035156 -69.742188 83.789062 -59.40625 81.019531 -48.949219 C 76.445312 -31.714844 71.613281 -14.53125 67.582031 2.832031 C 63.023438 22.4375 58.988281 42.167969 55.171875 61.929688 C 51.46875 81.125 48.269531 100.421875 44.957031 119.691406 C 41.488281 139.898438 38.128906 160.125 34.765625 180.351562 C 33.179688 189.898438 31.699219 199.464844 30.167969 209.019531 C 27.910156 223.070312 25.550781 237.113281 23.421875 251.1875 C 22.171875 259.457031 21.296875 267.773438 20.214844 276.066406 C 17.742188 295.074219 15.207031 314.070312 12.761719 333.085938 C 11.769531 340.8125 11.058594 348.578125 10.035156 356.304688 C 7.820312 373.050781 5.429688 389.769531 3.226562 406.519531 C 1.9375 416.320312 0.996094 426.160156 -0.320312 435.953125 C -2.449219 451.757812 -4.902344 467.511719 -6.953125 483.328125 C -8.128906 492.371094 -8.902344 501.476562 -9.644531 510.566406 C -10.640625 522.675781 -11.886719 534.800781 -12.195312 546.933594 C -12.617188 563.660156 -12.878906 580.433594 -12.074219 597.132812 C -11.265625 613.800781 -9.703125 630.496094 -7.265625 647 C -4.484375 665.789062 0.0195312 684.316406 7.808594 701.757812 C 12.6875 712.691406 18.816406 723.085938 27.265625 731.683594 C 35.996094 740.570312 46.085938 747.144531 58.707031 750.011719 C 75.207031 753.761719 89.902344 749.492188 103.964844 741.773438 C 119.535156 733.234375 131.703125 720.769531 142.410156 706.742188 C 151.871094 694.34375 159.582031 680.875 167.304688 667.390625 C 177.390625 649.769531 187.230469 631.976562 198.0625 614.816406 C 212.042969 592.660156 227.898438 571.839844 245.460938 552.328125 C 258.90625 537.390625 272.273438 522.378906 285.34375 507.113281 C 302.382812 487.210938 318.558594 466.636719 333.320312 444.945312 C 345.074219 427.675781 356.042969 409.925781 366.011719 391.601562 C 373.8125 377.273438 380.964844 362.578125 388.035156 347.871094 C 395.757812 331.796875 403.234375 315.597656 410.457031 299.296875 C 416.605469 285.414062 422.335938 271.339844 428.085938 257.28125 C 433.90625 243.058594 439.664062 228.800781 445.1875 214.460938 C 449.6875 202.769531 453.777344 190.917969 458.070312 179.152344 C 463.925781 163.109375 469.804688 147.074219 475.675781 131.035156 C 479.652344 120.160156 483.449219 109.207031 487.664062 98.421875 C 493.460938 83.582031 499.46875 68.820312 505.605469 54.121094 C 509.332031 45.191406 513.339844 36.371094 517.476562 27.621094 C 524.960938 11.808594 533.191406 -3.613281 543.921875 -17.496094 C 547.953125 -22.710938 552.496094 -27.5 558.660156 -30.625 C 564.460938 -33.574219 569.476562 -32.089844 574.046875 -26.425781 C 578.832031 -20.496094 581.09375 -13.3125 582.78125 -6.1875 C 585.710938 6.175781 587.980469 18.710938 590.003906 31.253906 C 592.691406 47.929688 594.960938 64.675781 597.242188 81.414062 C 598.371094 89.695312 599.132812 98.027344 600.074219 106.339844 C 601.378906 117.851562 602.703125 129.359375 604.019531 140.867188 C 606.136719 159.359375 608.253906 177.851562 610.390625 196.339844 C 615.554688 241.03125 615.957031 285.894531 614.964844 330.785156 C 614.566406 348.839844 614.050781 366.929688 612.507812 384.914062 C 610.949219 403.039062 608.078125 421.054688 605.703125 439.101562 C 604.984375 444.566406 604.261719 450.054688 603.105469 455.429688 C 599.546875 471.941406 596.46875 488.597656 591.882812 504.820312 C 587.976562 518.652344 582.996094 532.300781 577.128906 545.425781 C 568.679688 564.316406 557.621094 581.839844 545.039062 598.289062 C 533.523438 613.335938 521.40625 627.921875 510.011719 643.058594 C 499.800781 656.621094 491.703125 671.34375 486.847656 687.828125 C 483.515625 699.140625 482.050781 710.445312 483.648438 722.117188 C 485.8125 737.929688 493.148438 750.636719 506.214844 760.046875 C 517.390625 768.089844 530.15625 771.109375 543.488281 772.601562 C 556.050781 774.003906 568.5625 773.191406 581.019531 771.558594 C 590.988281 770.253906 600.957031 768.761719 610.808594 766.78125 C 629.226562 763.070312 647.46875 758.507812 665.097656 751.953125 C 676.125 747.871094 686.832031 742.957031 698.070312 738.246094 Z M 698.070312 738.246094 " fill-opacity="1" fill-rule="nonzero"/></g><g clip-path="url(#653a955b91)"><path fill="#ff007f" d="M 591.621094 358.007812 C 591.308594 333.085938 591.480469 308.710938 590.46875 284.386719 C 589.683594 265.605469 587.882812 246.832031 585.695312 228.148438 C 583.125 206.257812 580.054688 184.40625 576.410156 162.671875 C 573.835938 147.332031 570.371094 132.09375 566.453125 117.03125 C 564.414062 109.207031 560.734375 101.777344 557.390625 94.359375 C 556.265625 91.867188 554.125 89.65625 551.996094 87.84375 C 548.085938 84.519531 541.703125 84.707031 537.332031 88.882812 C 532.570312 93.433594 527.925781 98.359375 524.351562 103.859375 C 515.441406 117.574219 508.34375 132.289062 502.148438 147.429688 C 496.472656 161.296875 490.585938 175.074219 485.054688 188.992188 C 480.917969 199.386719 477.285156 209.988281 473.265625 220.433594 C 467.195312 236.1875 461.007812 251.890625 454.835938 267.601562 C 450.949219 277.488281 447.101562 287.390625 443.058594 297.222656 C 436.921875 312.132812 430.660156 326.996094 424.398438 341.859375 C 420.644531 350.769531 416.871094 359.679688 412.960938 368.527344 C 406.835938 382.40625 400.675781 396.277344 394.363281 410.070312 C 388.757812 422.324219 383.234375 434.625 377.105469 446.613281 C 369.855469 460.800781 362.210938 474.796875 354.316406 488.632812 C 349.34375 497.351562 343.65625 505.667969 338.179688 514.09375 C 329.898438 526.835938 320.429688 538.695312 310.59375 550.257812 C 297.328125 565.859375 282.96875 580.429688 268.453125 594.871094 C 250.984375 612.253906 233.75 629.929688 218.492188 649.3125 C 207.355469 663.457031 196.988281 678.21875 186.464844 692.839844 C 175.605469 707.917969 165.804688 723.761719 153.039062 737.425781 C 139.566406 751.847656 124.675781 764.433594 106.667969 772.777344 C 86.695312 782.027344 65.863281 784.566406 44.464844 778.519531 C 33.566406 775.4375 23.964844 769.714844 15.511719 762.109375 C 1.21875 749.25 -8.1875 733.226562 -15.285156 715.574219 C -20.125 703.539062 -23.558594 691.167969 -26.378906 678.523438 C -32.316406 651.898438 -35.269531 624.984375 -35.644531 597.746094 C -35.792969 587.089844 -36.585938 576.425781 -36.210938 565.796875 C -35.421875 543.757812 -34.375 521.71875 -32.808594 499.726562 C -31.589844 482.6875 -29.496094 465.714844 -27.671875 448.726562 C -26.085938 433.996094 -24.441406 419.273438 -22.628906 404.566406 C -20.382812 386.296875 -17.925781 368.046875 -15.578125 349.789062 C -13.109375 330.5625 -10.769531 311.320312 -8.175781 292.113281 C -5.820312 274.621094 -3.214844 257.15625 -0.695312 239.679688 C 1.902344 221.632812 4.472656 203.578125 7.167969 185.546875 C 9.46875 170.148438 12.011719 154.785156 14.289062 139.378906 C 15.371094 132.046875 16.074219 124.660156 16.964844 117.300781 C 19.191406 98.824219 21.761719 80.375 23.550781 61.859375 C 24.902344 47.867188 26.152344 33.769531 24.28125 19.710938 C 23.8125 16.195312 22.613281 12.703125 21.261719 9.402344 C 19.640625 5.449219 16.261719 3.945312 11.988281 4.695312 C 5.625 5.8125 1.183594 9.976562 -3.128906 14.324219 C -3.792969 14.996094 -4.332031 15.792969 -4.917969 16.546875 C -9.265625 22.121094 -9.035156 23.070312 -2.851562 26.878906 C 1.691406 29.675781 5.117188 33.589844 6.226562 38.832031 C 7.71875 45.871094 9.222656 52.996094 9.683594 60.144531 C 10.585938 74.011719 9.625 87.859375 8.035156 101.679688 C 6.660156 113.574219 6.0625 125.554688 4.730469 137.453125 C 3.207031 151.046875 1.371094 164.601562 -0.554688 178.144531 C -2.554688 192.234375 -4.925781 206.261719 -6.941406 220.34375 C -8.316406 229.933594 -9.289062 239.585938 -10.574219 249.1875 C -12.625 264.421875 -14.859375 279.628906 -16.875 294.863281 C -17.976562 303.152344 -18.753906 311.484375 -19.742188 319.792969 C -21.070312 330.914062 -22.546875 342.011719 -23.820312 353.140625 C -26.042969 372.5625 -28.144531 392.003906 -30.332031 411.441406 C -31.542969 422.195312 -32.976562 432.917969 -34.023438 443.6875 C -35.949219 463.527344 -37.703125 483.390625 -39.449219 503.246094 C -40.476562 514.964844 -41.453125 526.683594 -42.257812 538.421875 C -42.660156 544.300781 -42.753906 550.210938 -42.746094 556.109375 C -42.722656 573.617188 -43 591.144531 -42.351562 608.632812 C -41.871094 621.503906 -40.496094 634.375 -38.832031 647.160156 C -37.265625 659.195312 -35.207031 671.195312 -32.648438 683.058594 C -27.78125 705.617188 -20.5 727.386719 -8.164062 747.082031 C 3.054688 764.976562 17.710938 779.339844 37.660156 787.296875 C 54.347656 793.949219 71.507812 794.925781 89.054688 790.566406 C 113.496094 784.496094 133.902344 771.613281 152.128906 754.632812 C 163.277344 744.242188 172.839844 732.53125 182.246094 720.617188 C 201.792969 695.859375 222.453125 672.066406 244.875 649.851562 C 262.574219 632.324219 280.523438 615.050781 297.96875 597.277344 C 315.03125 579.902344 330.160156 560.921875 343.515625 540.5 C 356.527344 520.601562 367.859375 499.808594 378.085938 478.394531 C 386.675781 460.410156 395.066406 442.320312 403.175781 424.121094 C 411.902344 404.539062 420.300781 384.804688 428.671875 365.0625 C 437.121094 345.144531 445.390625 325.152344 453.675781 305.160156 C 462.105469 284.824219 470.363281 264.410156 478.875 244.109375 C 485.257812 228.886719 491.59375 213.621094 498.578125 198.667969 C 505.15625 184.597656 511.683594 170.394531 521.570312 158.1875 C 524.050781 155.125 527.03125 152.367188 530.125 149.910156 C 537.4375 144.105469 543.246094 146.910156 548.316406 153.015625 C 552.621094 158.207031 555.210938 164.425781 557.214844 170.714844 C 560.089844 179.746094 562.503906 188.957031 564.636719 198.199219 C 569.632812 219.875 572.582031 241.886719 575.445312 263.949219 C 580.515625 303.136719 581.324219 342.476562 580.480469 381.855469 C 580.042969 402.554688 578.210938 423.234375 576.460938 443.882812 C 575.484375 455.40625 573.8125 466.921875 571.65625 478.289062 C 568.949219 492.636719 566.21875 507.0625 562.082031 521.035156 C 555.925781 541.820312 546.53125 561.265625 535.074219 579.761719 C 524.273438 597.203125 512.128906 613.625 499.503906 629.742188 C 490.371094 641.402344 481.625 653.402344 475.058594 666.699219 C 469.4375 678.089844 464.746094 689.886719 462.023438 702.464844 C 459.824219 712.625 459.011719 722.789062 459.742188 733.039062 C 460.671875 746.039062 464.195312 758.3125 470.910156 769.691406 C 477.214844 780.371094 485.457031 788.953125 495.699219 795.867188 C 506.25 802.988281 517.832031 807.253906 530.136719 810.144531 C 550.644531 814.957031 571.320312 813.910156 591.972656 812.171875 C 603.308594 811.21875 614.683594 809.804688 625.824219 807.527344 C 641.976562 804.234375 658.230469 801.199219 673.8125 795.515625 C 685.21875 791.363281 696.929688 787.980469 708.152344 783.390625 C 721.652344 777.859375 734.851562 771.578125 748.039062 765.324219 C 759.53125 759.875 770.804688 753.953125 782.226562 748.355469 C 794.488281 742.339844 806.78125 736.375 819.136719 730.542969 C 823.765625 728.351562 828.574219 726.535156 833.347656 724.660156 C 852.851562 717.007812 872.988281 711.613281 893.480469 707.246094 C 904.964844 704.792969 916.3125 701.445312 927.433594 697.660156 C 932.304688 696.003906 936.855469 692.710938 940.839844 689.324219 C 948.550781 682.78125 947.585938 674.042969 938.628906 669.566406 C 934.304688 667.40625 929.347656 666.007812 924.539062 665.4375 C 911.789062 663.914062 899.621094 666.953125 887.832031 671.613281 C 878.128906 675.457031 868.304688 679.074219 858.835938 683.445312 C 846.617188 689.089844 834.550781 695.121094 822.6875 701.480469 C 812.164062 707.121094 801.953125 713.359375 791.695312 719.484375 C 779.316406 726.878906 767.128906 734.589844 754.6875 741.863281 C 744.535156 747.792969 734.375 753.792969 723.777344 758.835938 C 709.742188 765.519531 695.332031 771.425781 680.980469 777.421875 C 675.570312 779.6875 669.9375 781.5 664.285156 783.109375 C 645.660156 788.421875 626.882812 792.882812 607.710938 796.0625 C 588.082031 799.320312 568.480469 800.664062 548.671875 800.316406 C 529.175781 799.976562 511.117188 794.863281 495.105469 783.640625 C 484.832031 776.4375 477.0625 766.925781 472.09375 755.28125 C 463.003906 733.96875 464.03125 712.421875 470.261719 690.617188 C 475.023438 673.953125 483.226562 659.042969 492.992188 644.984375 C 499.46875 635.65625 506.929688 627.027344 513.773438 617.953125 C 520.507812 609.023438 527.277344 600.101562 533.578125 590.871094 C 539.761719 581.804688 545.71875 572.542969 551.117188 562.992188 C 555.398438 555.417969 558.984375 547.402344 562.355469 539.363281 C 570.6875 519.476562 575.4375 498.609375 579.460938 477.476562 C 584.769531 449.609375 588.257812 421.574219 589.597656 393.25 C 590.121094 381.703125 590.917969 370.140625 591.621094 358.007812 Z M 591.621094 358.007812 " fill-opacity="1" fill-rule="nonzero"/></g></g></g></g></g></svg>