<svg width="500" height="500" viewBox="0 0 200 200" fill="none" xmlns="http://www.w3.org/2000/svg">
<path d="M200 100C200 155.228 155.228 200 100 200C44.7715 200 0 155.228 0 100C0 44.7715 44.7715 0 100 0C155.228 0 200 44.7715 200 100Z" fill="#FFCD1A"/>
<path d="M91.4 82.088L91.144 63.144C91.144 57.8533 91.272 55.08 91.528 54.824C92.552 53.8 94.216 52.8187 96.52 51.88C98.9093 50.856 101.171 50.344 103.304 50.344C105.437 50.344 106.504 50.5147 106.504 50.856C105.821 65.0213 105.48 80.0827 105.48 96.04C105.48 111.997 105.736 121.512 106.248 124.584C106.845 129.192 108.253 132.605 110.472 134.824C110.472 135.677 108.68 137 105.096 138.792C101.597 140.669 98.6107 141.608 96.136 141.608C95.88 141.608 95.496 141.267 94.984 140.584C93.3627 138.451 92.3813 135.549 92.04 131.88C92.04 131.624 91.9547 131.496 91.784 131.496L91.4 131.752C87.816 136.872 82.4827 139.432 75.4 139.432C69.6827 139.432 65.16 137.171 61.832 132.648C58.504 128.125 56.84 123.048 56.84 117.416C56.84 107.773 59.8267 99.5813 65.8 92.84C71.7733 86.0133 80.3067 82.4293 91.4 82.088ZM91.656 95.528C91.656 95.3573 91.1867 95.272 90.248 95.272H89.736C84.2747 95.272 79.9653 97.0213 76.808 100.52C73.736 104.019 72.2 108.456 72.2 113.832C72.2 116.989 72.9253 119.592 74.376 121.64C75.912 123.603 78.1733 124.584 81.16 124.584C84.232 124.584 86.664 123.261 88.456 120.616C90.3333 117.971 91.272 115.88 91.272 114.344C91.272 104.872 91.4 98.6 91.656 95.528Z" fill="black"/>
<path d="M132.28 84.52C133.731 85.9707 134.456 87.72 134.456 89.768C134.456 91.816 133.645 93.6507 132.024 95.272C130.488 96.808 128.696 97.576 126.648 97.576C124.6 97.576 122.893 96.8933 121.528 95.528C120.163 94.0773 119.48 92.2853 119.48 90.152C119.48 88.0187 120.205 86.184 121.656 84.648C123.192 83.112 124.984 82.344 127.032 82.344C129.08 82.344 130.829 83.0693 132.28 84.52ZM132.28 124.712C133.731 126.163 134.456 127.912 134.456 129.96C134.456 132.008 133.645 133.843 132.024 135.464C130.488 137 128.696 137.768 126.648 137.768C124.6 137.768 122.893 137.085 121.528 135.72C120.163 134.269 119.48 132.477 119.48 130.344C119.48 128.125 120.205 126.291 121.656 124.84C123.192 123.304 124.984 122.536 127.032 122.536C129.08 122.536 130.829 123.261 132.28 124.712Z" fill="black"/>
</svg>
