<svg xmlns="http://www.w3.org/2000/svg" width="inherit" height="inherit" viewBox="0 0 2501 2501"
  fill="none">
  <circle cx="1250.5" cy="1250.5" r="954.5" fill="#fff" />
  <path fill-rule="evenodd" clip-rule="evenodd"
    d="M2500.51 1250.51c0 690.35-559.65 1250-1250 1250-690.358 0-1250.002-559.65-1250.002-1250C.508 560.154 560.152.51 1250.51.51c690.35 0 1250 559.644 1250 1250m-869.59-5.28c22.45-38.88 78.58-38.88 101.04 0l239.72 415.22c22.45 38.89-5.61 87.5-50.52 87.5h-479.45c-44.9 0-72.97-48.61-50.51-87.5zm-129.6-399.496c22.33 38.676 22.33 86.325 0 125.001l-412.63 714.705c-22.33 38.68-63.6 62.5-108.255 62.5h-400.56c-44.905 0-72.97-48.61-50.518-87.5l670.653-1161.6c22.45-38.888 78.58-38.888 101.03 0z"
    fill="#FF394A" />
</svg>